<svg xmlns="http://www.w3.org/2000/svg" width="240" height="60" viewBox="0 0 240 60" role="img" aria-labelledby="logo-mono-white-title">
  <title id="logo-mono-white-title">Codenest</title>

  <style>
    text { text-rendering: optimizeLegibility; }
  </style>

  <g fill="none" fill-rule="evenodd">
    <!-- Braces -->
    <path fill="#FFFFFF" d="M32 15c0-3.866-3.134-7-7-7h-2v4h2c1.657 0 3 1.343 3 3v6c0 1.657 1.343 3 3 3v2c-1.657 0-3 1.343-3 3v6c0 1.657-1.343 3-3 3h-2v4h2c3.866 0 7-3.134 7-7v-6c0-1.657 1.343-3 3-3v-2c-1.657 0-3-1.343-3-3v-6zM16 8h-2c-3.866 0-7 3.134-7 7v6c0 1.657-1.343 3-3 3v2c1.657 0 3 1.343 3 3v6c0 3.866 3.134 7 7 7h2v-4h-2c-1.657 0-3-1.343-3-3v-6c0-1.657-1.343-3-3-3v-2c1.657 0 3-1.343 3-3v-6c0-1.657 1.343-3 3-3h2V8z"/>
    <!-- Center dot -->
    <circle cx="19" cy="30" r="3.5" fill="#FFFFFF"/>
    <!-- Text -->
    <text x="42" y="36" font-family="-apple-system, BlinkMacSystemFont, 'Segoe UI', 'Inter', 'Poppins', 'Roboto', system-ui, sans-serif" font-size="30" font-weight="600" fill="#FFFFFF">
      codenest
    </text>
  </g>
</svg>
