<svg xmlns="http://www.w3.org/2000/svg" width="64" height="64" viewBox="0 0 64 64" role="img" aria-labelledby="icon-title icon-desc">
  <title id="icon-title">Codenest</title>
  <desc id="icon-desc">Codenest icon - nest-shaped braces</desc>

  <g fill="none" fill-rule="evenodd" transform="translate(13, 10)">
    <!-- Braces -->
    <path fill="#FFC300" d="M32 15c0-3.866-3.134-7-7-7h-2v4h2c1.657 0 3 1.343 3 3v6c0 1.657 1.343 3 3 3v2c-1.657 0-3 1.343-3 3v6c0 1.657-1.343 3-3 3h-2v4h2c3.866 0 7-3.134 7-7v-6c0-1.657 1.343-3 3-3v-2c-1.657 0-3-1.343-3-3v-6zM16 8h-2c-3.866 0-7 3.134-7 7v6c0 1.657-1.343 3-3 3v2c1.657 0 3 1.343 3 3v6c0 3.866 3.134 7 7 7h2v-4h-2c-1.657 0-3-1.343-3-3v-6c0-1.657-1.343-3-3-3v-2c1.657 0 3-1.343 3-3v-6c0-1.657 1.343-3 3-3h2V8z"/>
    <!-- Center dot -->
    <circle cx="19" cy="30" r="3.5" fill="#FFC300"/>
  </g>
</svg>
